<?xml version="1.0" encoding="UTF-8" standalone="no"?>
<!DOCTYPE svg PUBLIC "-//W3C//DTD SVG 1.1//EN"
 "http://www.w3.org/Graphics/SVG/1.1/DTD/svg11.dtd">
<!-- Generated by graphviz version 2.47.1 (20210511.0111)
 -->
<!-- Title: snakemake_dag Pages: 1 -->
<svg width="1007pt" height="908pt"
 viewBox="0.00 0.00 1006.50 908.00" xmlns="http://www.w3.org/2000/svg" xmlns:xlink="http://www.w3.org/1999/xlink">
<g id="graph0" class="graph" transform="scale(1 1) rotate(0) translate(4 904)">
<title>snakemake_dag</title>
<polygon fill="white" stroke="transparent" points="-4,4 -4,-904 1002.5,-904 1002.5,4 -4,4"/>
<!-- 0 -->
<g id="node1" class="node">
<title>0</title>
<path fill="none" stroke="#56a9d8" stroke-width="2" stroke-dasharray="5,2" d="M571,-36C571,-36 541,-36 541,-36 535,-36 529,-30 529,-24 529,-24 529,-12 529,-12 529,-6 535,0 541,0 541,0 571,0 571,0 577,0 583,-6 583,-12 583,-12 583,-24 583,-24 583,-30 577,-36 571,-36"/>
<text text-anchor="middle" x="556" y="-15.5" font-family="sans" font-size="10.00">all</text>
</g>
<!-- 1 -->
<g id="node2" class="node">
<title>1</title>
<path fill="none" stroke="#569ad8" stroke-width="2" stroke-dasharray="5,2" d="M986.5,-108C986.5,-108 879.5,-108 879.5,-108 873.5,-108 867.5,-102 867.5,-96 867.5,-96 867.5,-84 867.5,-84 867.5,-78 873.5,-72 879.5,-72 879.5,-72 986.5,-72 986.5,-72 992.5,-72 998.5,-78 998.5,-84 998.5,-84 998.5,-96 998.5,-96 998.5,-102 992.5,-108 986.5,-108"/>
<text text-anchor="middle" x="933" y="-93" font-family="sans" font-size="10.00">blastx_all_contigs_split</text>
<text text-anchor="middle" x="933" y="-82" font-family="sans" font-size="10.00">sample: 0</text>
</g>
<!-- 1&#45;&gt;0 -->
<g id="edge1" class="edge">
<title>1&#45;&gt;0</title>
<path fill="none" stroke="grey" stroke-width="2" d="M867.27,-73.71C864.48,-73.12 861.71,-72.55 859,-72 763.65,-52.72 650.58,-34.04 593.28,-24.87"/>
<polygon fill="grey" stroke="grey" stroke-width="2" points="593.68,-21.39 583.25,-23.27 592.57,-28.3 593.68,-21.39"/>
</g>
<!-- 2 -->
<g id="node3" class="node">
<title>2</title>
<path fill="none" stroke="#d8ac56" stroke-width="2" stroke-dasharray="5,2" d="M853,-180C853,-180 715,-180 715,-180 709,-180 703,-174 703,-168 703,-168 703,-156 703,-156 703,-150 709,-144 715,-144 715,-144 853,-144 853,-144 859,-144 865,-150 865,-156 865,-156 865,-168 865,-168 865,-174 859,-180 853,-180"/>
<text text-anchor="middle" x="784" y="-159.5" font-family="sans" font-size="10.00">split_assembly_before_blastx</text>
</g>
<!-- 2&#45;&gt;1 -->
<g id="edge7" class="edge">
<title>2&#45;&gt;1</title>
<path fill="none" stroke="grey" stroke-width="2" d="M820.45,-143.88C840.64,-134.39 865.92,-122.51 887.41,-112.42"/>
<polygon fill="grey" stroke="grey" stroke-width="2" points="889.11,-115.49 896.67,-108.07 886.13,-109.15 889.11,-115.49"/>
</g>
<!-- 22 -->
<g id="node23" class="node">
<title>22</title>
<path fill="none" stroke="#569ad8" stroke-width="2" stroke-dasharray="5,2" d="M837.5,-108C837.5,-108 730.5,-108 730.5,-108 724.5,-108 718.5,-102 718.5,-96 718.5,-96 718.5,-84 718.5,-84 718.5,-78 724.5,-72 730.5,-72 730.5,-72 837.5,-72 837.5,-72 843.5,-72 849.5,-78 849.5,-84 849.5,-84 849.5,-96 849.5,-96 849.5,-102 843.5,-108 837.5,-108"/>
<text text-anchor="middle" x="784" y="-93" font-family="sans" font-size="10.00">blastx_all_contigs_split</text>
<text text-anchor="middle" x="784" y="-82" font-family="sans" font-size="10.00">sample: 77</text>
</g>
<!-- 2&#45;&gt;22 -->
<g id="edge31" class="edge">
<title>2&#45;&gt;22</title>
<path fill="none" stroke="grey" stroke-width="2" d="M784,-143.7C784,-135.98 784,-126.71 784,-118.11"/>
<polygon fill="grey" stroke="grey" stroke-width="2" points="787.5,-118.1 784,-108.1 780.5,-118.1 787.5,-118.1"/>
</g>
<!-- 3 -->
<g id="node4" class="node">
<title>3</title>
<path fill="none" stroke="#d85656" stroke-width="2" stroke-dasharray="5,2" d="M574.5,-252C574.5,-252 489.5,-252 489.5,-252 483.5,-252 477.5,-246 477.5,-240 477.5,-240 477.5,-228 477.5,-228 477.5,-222 483.5,-216 489.5,-216 489.5,-216 574.5,-216 574.5,-216 580.5,-216 586.5,-222 586.5,-228 586.5,-228 586.5,-240 586.5,-240 586.5,-246 580.5,-252 574.5,-252"/>
<text text-anchor="middle" x="532" y="-231.5" font-family="sans" font-size="10.00">merge_assemblies</text>
</g>
<!-- 3&#45;&gt;2 -->
<g id="edge8" class="edge">
<title>3&#45;&gt;2</title>
<path fill="none" stroke="grey" stroke-width="2" d="M586.68,-217.81C623.72,-207.52 673.03,-193.83 713.09,-182.7"/>
<polygon fill="grey" stroke="grey" stroke-width="2" points="714.1,-186.05 722.79,-180 712.22,-179.31 714.1,-186.05"/>
</g>
<!-- 24 -->
<g id="node25" class="node">
<title>24</title>
<path fill="none" stroke="#56c1d8" stroke-width="2" stroke-dasharray="5,2" d="M526,-180C526,-180 434,-180 434,-180 428,-180 422,-174 422,-168 422,-168 422,-156 422,-156 422,-150 428,-144 434,-144 434,-144 526,-144 526,-144 532,-144 538,-150 538,-156 538,-156 538,-168 538,-168 538,-174 532,-180 526,-180"/>
<text text-anchor="middle" x="480" y="-159.5" font-family="sans" font-size="10.00">hisat2_index_merge</text>
</g>
<!-- 3&#45;&gt;24 -->
<g id="edge33" class="edge">
<title>3&#45;&gt;24</title>
<path fill="none" stroke="grey" stroke-width="2" d="M519.15,-215.7C512.97,-207.39 505.46,-197.28 498.68,-188.14"/>
<polygon fill="grey" stroke="grey" stroke-width="2" points="501.48,-186.04 492.71,-180.1 495.86,-190.22 501.48,-186.04"/>
</g>
<!-- 4 -->
<g id="node5" class="node">
<title>4</title>
<path fill="none" stroke="#68d856" stroke-width="2" stroke-dasharray="5,2" d="M451.5,-324C451.5,-324 374.5,-324 374.5,-324 368.5,-324 362.5,-318 362.5,-312 362.5,-312 362.5,-300 362.5,-300 362.5,-294 368.5,-288 374.5,-288 374.5,-288 451.5,-288 451.5,-288 457.5,-288 463.5,-294 463.5,-300 463.5,-300 463.5,-312 463.5,-312 463.5,-318 457.5,-324 451.5,-324"/>
<text text-anchor="middle" x="413" y="-303.5" font-family="sans" font-size="10.00">subset_contigs_B</text>
</g>
<!-- 4&#45;&gt;3 -->
<g id="edge9" class="edge">
<title>4&#45;&gt;3</title>
<path fill="none" stroke="grey" stroke-width="2" d="M442.11,-287.88C457.67,-278.72 477.02,-267.34 493.78,-257.48"/>
<polygon fill="grey" stroke="grey" stroke-width="2" points="495.93,-260.28 502.78,-252.19 492.38,-254.24 495.93,-260.28"/>
</g>
<!-- 5 -->
<g id="node6" class="node">
<title>5</title>
<path fill="none" stroke="#d86e56" stroke-width="2" stroke-dasharray="5,2" d="M425,-396C425,-396 375,-396 375,-396 369,-396 363,-390 363,-384 363,-384 363,-372 363,-372 363,-366 369,-360 375,-360 375,-360 425,-360 425,-360 431,-360 437,-366 437,-372 437,-372 437,-384 437,-384 437,-390 431,-396 425,-396"/>
<text text-anchor="middle" x="400" y="-375.5" font-family="sans" font-size="10.00">coverage_B</text>
</g>
<!-- 5&#45;&gt;4 -->
<g id="edge12" class="edge">
<title>5&#45;&gt;4</title>
<path fill="none" stroke="grey" stroke-width="2" d="M403.21,-359.7C404.65,-351.98 406.37,-342.71 407.96,-334.11"/>
<polygon fill="grey" stroke="grey" stroke-width="2" points="411.44,-334.58 409.82,-324.1 404.56,-333.3 411.44,-334.58"/>
</g>
<!-- 6 -->
<g id="node7" class="node">
<title>6</title>
<path fill="none" stroke="#56d882" stroke-width="2" stroke-dasharray="5,2" d="M409.5,-468C409.5,-468 362.5,-468 362.5,-468 356.5,-468 350.5,-462 350.5,-456 350.5,-456 350.5,-444 350.5,-444 350.5,-438 356.5,-432 362.5,-432 362.5,-432 409.5,-432 409.5,-432 415.5,-432 421.5,-438 421.5,-444 421.5,-444 421.5,-456 421.5,-456 421.5,-462 415.5,-468 409.5,-468"/>
<text text-anchor="middle" x="386" y="-447.5" font-family="sans" font-size="10.00">mapping_B</text>
</g>
<!-- 6&#45;&gt;5 -->
<g id="edge14" class="edge">
<title>6&#45;&gt;5</title>
<path fill="none" stroke="grey" stroke-width="2" d="M389.46,-431.7C391,-423.98 392.86,-414.71 394.58,-406.11"/>
<polygon fill="grey" stroke="grey" stroke-width="2" points="398.05,-406.6 396.58,-396.1 391.19,-405.22 398.05,-406.6"/>
</g>
<!-- 7 -->
<g id="node8" class="node">
<title>7</title>
<path fill="none" stroke="#56d89a" stroke-width="2" stroke-dasharray="5,2" d="M386,-684C386,-684 312,-684 312,-684 306,-684 300,-678 300,-672 300,-672 300,-660 300,-660 300,-654 306,-648 312,-648 312,-648 386,-648 386,-648 392,-648 398,-654 398,-660 398,-660 398,-672 398,-672 398,-678 392,-684 386,-684"/>
<text text-anchor="middle" x="349" y="-663.5" font-family="sans" font-size="10.00">trimmomatic_pe</text>
</g>
<!-- 7&#45;&gt;6 -->
<g id="edge15" class="edge">
<title>7&#45;&gt;6</title>
<path fill="none" stroke="grey" stroke-width="2" d="M336.18,-647.59C315.35,-616.97 278.95,-552.17 305,-504 313.01,-489.19 327.16,-477.85 341.41,-469.54"/>
<polygon fill="grey" stroke="grey" stroke-width="2" points="343.13,-472.59 350.25,-464.75 339.79,-466.44 343.13,-472.59"/>
</g>
<!-- 11 -->
<g id="node12" class="node">
<title>11</title>
<path fill="none" stroke="#56d8a9" stroke-width="2" stroke-dasharray="5,2" d="M429,-612C429,-612 343,-612 343,-612 337,-612 331,-606 331,-600 331,-600 331,-588 331,-588 331,-582 337,-576 343,-576 343,-576 429,-576 429,-576 435,-576 441,-582 441,-588 441,-588 441,-600 441,-600 441,-606 435,-612 429,-612"/>
<text text-anchor="middle" x="386" y="-591.5" font-family="sans" font-size="10.00">megahit_assemble</text>
</g>
<!-- 7&#45;&gt;11 -->
<g id="edge20" class="edge">
<title>7&#45;&gt;11</title>
<path fill="none" stroke="grey" stroke-width="2" d="M358.15,-647.7C362.4,-639.64 367.56,-629.89 372.27,-620.98"/>
<polygon fill="grey" stroke="grey" stroke-width="2" points="375.38,-622.58 376.96,-612.1 369.19,-619.31 375.38,-622.58"/>
</g>
<!-- 8 -->
<g id="node9" class="node">
<title>8</title>
<path fill="none" stroke="#56d8d8" stroke-width="2" stroke-dasharray="5,2" d="M409.5,-756C409.5,-756 288.5,-756 288.5,-756 282.5,-756 276.5,-750 276.5,-744 276.5,-744 276.5,-732 276.5,-732 276.5,-726 282.5,-720 288.5,-720 288.5,-720 409.5,-720 409.5,-720 415.5,-720 421.5,-726 421.5,-732 421.5,-732 421.5,-744 421.5,-744 421.5,-750 415.5,-756 409.5,-756"/>
<text text-anchor="middle" x="349" y="-735.5" font-family="sans" font-size="10.00">hisat2_align_remove_host</text>
</g>
<!-- 8&#45;&gt;7 -->
<g id="edge17" class="edge">
<title>8&#45;&gt;7</title>
<path fill="none" stroke="grey" stroke-width="2" d="M349,-719.7C349,-711.98 349,-702.71 349,-694.11"/>
<polygon fill="grey" stroke="grey" stroke-width="2" points="352.5,-694.1 349,-684.1 345.5,-694.1 352.5,-694.1"/>
</g>
<!-- 9 -->
<g id="node10" class="node">
<title>9</title>
<path fill="none" stroke="#56d86b" stroke-width="2" stroke-dasharray="5,2" d="M353,-828C353,-828 267,-828 267,-828 261,-828 255,-822 255,-816 255,-816 255,-804 255,-804 255,-798 261,-792 267,-792 267,-792 353,-792 353,-792 359,-792 365,-798 365,-804 365,-804 365,-816 365,-816 365,-822 359,-828 353,-828"/>
<text text-anchor="middle" x="310" y="-813" font-family="sans" font-size="10.00">remove_duplicates</text>
<text text-anchor="middle" x="310" y="-802" font-family="sans" font-size="10.00">sample: B</text>
</g>
<!-- 9&#45;&gt;8 -->
<g id="edge18" class="edge">
<title>9&#45;&gt;8</title>
<path fill="none" stroke="grey" stroke-width="2" d="M319.64,-791.7C324.13,-783.64 329.56,-773.89 334.52,-764.98"/>
<polygon fill="grey" stroke="grey" stroke-width="2" points="337.66,-766.54 339.47,-756.1 331.55,-763.14 337.66,-766.54"/>
</g>
<!-- 26 -->
<g id="node27" class="node">
<title>26</title>
<path fill="none" stroke="#d8c356" stroke-width="2" stroke-dasharray="5,2" d="M382,-108C382,-108 218,-108 218,-108 212,-108 206,-102 206,-96 206,-96 206,-84 206,-84 206,-78 212,-72 218,-72 218,-72 382,-72 382,-72 388,-72 394,-78 394,-84 394,-84 394,-96 394,-96 394,-102 388,-108 382,-108"/>
<text text-anchor="middle" x="300" y="-87.5" font-family="sans" font-size="10.00">mapping_reads_on_final_assembly</text>
</g>
<!-- 9&#45;&gt;26 -->
<g id="edge35" class="edge">
<title>9&#45;&gt;26</title>
<path fill="none" stroke="grey" stroke-width="2" d="M292.55,-791.83C283.62,-782.1 273.34,-769.26 267,-756 249.55,-719.51 248,-707.45 248,-667 248,-667 248,-667 248,-233 248,-190.49 268.8,-144.95 284.09,-117.22"/>
<polygon fill="grey" stroke="grey" stroke-width="2" points="287.33,-118.61 289.23,-108.19 281.24,-115.15 287.33,-118.61"/>
</g>
<!-- 10 -->
<g id="node11" class="node">
<title>10</title>
<path fill="none" stroke="#d89556" stroke-width="2" stroke-dasharray="5,2" d="M445.5,-540C445.5,-540 326.5,-540 326.5,-540 320.5,-540 314.5,-534 314.5,-528 314.5,-528 314.5,-516 314.5,-516 314.5,-510 320.5,-504 326.5,-504 326.5,-504 445.5,-504 445.5,-504 451.5,-504 457.5,-510 457.5,-516 457.5,-516 457.5,-528 457.5,-528 457.5,-534 451.5,-540 445.5,-540"/>
<text text-anchor="middle" x="386" y="-519.5" font-family="sans" font-size="10.00">hisat2_index_assembly_B</text>
</g>
<!-- 10&#45;&gt;6 -->
<g id="edge16" class="edge">
<title>10&#45;&gt;6</title>
<path fill="none" stroke="grey" stroke-width="2" d="M386,-503.7C386,-495.98 386,-486.71 386,-478.11"/>
<polygon fill="grey" stroke="grey" stroke-width="2" points="389.5,-478.1 386,-468.1 382.5,-478.1 389.5,-478.1"/>
</g>
<!-- 11&#45;&gt;4 -->
<g id="edge13" class="edge">
<title>11&#45;&gt;4</title>
<path fill="none" stroke="grey" stroke-width="2" d="M427.18,-576C442.21,-567.54 457.57,-555.71 466,-540 483.49,-507.42 487.78,-475.38 446,-360 442.58,-350.57 437.33,-341.03 432.01,-332.7"/>
<polygon fill="grey" stroke="grey" stroke-width="2" points="434.77,-330.54 426.29,-324.19 428.96,-334.44 434.77,-330.54"/>
</g>
<!-- 11&#45;&gt;10 -->
<g id="edge19" class="edge">
<title>11&#45;&gt;10</title>
<path fill="none" stroke="grey" stroke-width="2" d="M386,-575.7C386,-567.98 386,-558.71 386,-550.11"/>
<polygon fill="grey" stroke="grey" stroke-width="2" points="389.5,-550.1 386,-540.1 382.5,-550.1 389.5,-550.1"/>
</g>
<!-- 12 -->
<g id="node13" class="node">
<title>12</title>
<path fill="none" stroke="#56d8c1" stroke-width="2" stroke-dasharray="5,2" d="M570.5,-324C570.5,-324 493.5,-324 493.5,-324 487.5,-324 481.5,-318 481.5,-312 481.5,-312 481.5,-300 481.5,-300 481.5,-294 487.5,-288 493.5,-288 493.5,-288 570.5,-288 570.5,-288 576.5,-288 582.5,-294 582.5,-300 582.5,-300 582.5,-312 582.5,-312 582.5,-318 576.5,-324 570.5,-324"/>
<text text-anchor="middle" x="532" y="-303.5" font-family="sans" font-size="10.00">subset_contigs_C</text>
</g>
<!-- 12&#45;&gt;3 -->
<g id="edge10" class="edge">
<title>12&#45;&gt;3</title>
<path fill="none" stroke="grey" stroke-width="2" d="M532,-287.7C532,-279.98 532,-270.71 532,-262.11"/>
<polygon fill="grey" stroke="grey" stroke-width="2" points="535.5,-262.1 532,-252.1 528.5,-262.1 535.5,-262.1"/>
</g>
<!-- 13 -->
<g id="node14" class="node">
<title>13</title>
<path fill="none" stroke="#d88556" stroke-width="2" stroke-dasharray="5,2" d="M632,-396C632,-396 582,-396 582,-396 576,-396 570,-390 570,-384 570,-384 570,-372 570,-372 570,-366 576,-360 582,-360 582,-360 632,-360 632,-360 638,-360 644,-366 644,-372 644,-372 644,-384 644,-384 644,-390 638,-396 632,-396"/>
<text text-anchor="middle" x="607" y="-375.5" font-family="sans" font-size="10.00">coverage_C</text>
</g>
<!-- 13&#45;&gt;12 -->
<g id="edge21" class="edge">
<title>13&#45;&gt;12</title>
<path fill="none" stroke="grey" stroke-width="2" d="M588.46,-359.7C579.2,-351.05 567.84,-340.45 557.74,-331.03"/>
<polygon fill="grey" stroke="grey" stroke-width="2" points="560.02,-328.37 550.33,-324.1 555.25,-333.49 560.02,-328.37"/>
</g>
<!-- 14 -->
<g id="node15" class="node">
<title>14</title>
<path fill="none" stroke="#afd856" stroke-width="2" stroke-dasharray="5,2" d="M647.5,-468C647.5,-468 600.5,-468 600.5,-468 594.5,-468 588.5,-462 588.5,-456 588.5,-456 588.5,-444 588.5,-444 588.5,-438 594.5,-432 600.5,-432 600.5,-432 647.5,-432 647.5,-432 653.5,-432 659.5,-438 659.5,-444 659.5,-444 659.5,-456 659.5,-456 659.5,-462 653.5,-468 647.5,-468"/>
<text text-anchor="middle" x="624" y="-447.5" font-family="sans" font-size="10.00">mapping_C</text>
</g>
<!-- 14&#45;&gt;13 -->
<g id="edge23" class="edge">
<title>14&#45;&gt;13</title>
<path fill="none" stroke="grey" stroke-width="2" d="M619.8,-431.7C617.9,-423.9 615.62,-414.51 613.52,-405.83"/>
<polygon fill="grey" stroke="grey" stroke-width="2" points="616.92,-405 611.15,-396.1 610.11,-406.65 616.92,-405"/>
</g>
<!-- 15 -->
<g id="node16" class="node">
<title>15</title>
<path fill="none" stroke="#56d89a" stroke-width="2" stroke-dasharray="5,2" d="M615,-756C615,-756 541,-756 541,-756 535,-756 529,-750 529,-744 529,-744 529,-732 529,-732 529,-726 535,-720 541,-720 541,-720 615,-720 615,-720 621,-720 627,-726 627,-732 627,-732 627,-744 627,-744 627,-750 621,-756 615,-756"/>
<text text-anchor="middle" x="578" y="-735.5" font-family="sans" font-size="10.00">trimmomatic_pe</text>
</g>
<!-- 15&#45;&gt;14 -->
<g id="edge24" class="edge">
<title>15&#45;&gt;14</title>
<path fill="none" stroke="grey" stroke-width="2" d="M604.91,-719.8C617.98,-710.42 633.16,-697.91 644,-684 686.72,-629.18 692.18,-608.31 705,-540 707.95,-524.27 712.61,-518.07 705,-504 696.99,-489.19 682.84,-477.85 668.59,-469.54"/>
<polygon fill="grey" stroke="grey" stroke-width="2" points="670.21,-466.44 659.75,-464.75 666.87,-472.59 670.21,-466.44"/>
</g>
<!-- 20 -->
<g id="node21" class="node">
<title>20</title>
<path fill="none" stroke="#97d856" stroke-width="2" stroke-dasharray="5,2" d="M623,-684C623,-684 533,-684 533,-684 527,-684 521,-678 521,-672 521,-672 521,-660 521,-660 521,-654 527,-648 533,-648 533,-648 623,-648 623,-648 629,-648 635,-654 635,-660 635,-660 635,-672 635,-672 635,-678 629,-684 623,-684"/>
<text text-anchor="middle" x="578" y="-663.5" font-family="sans" font-size="10.00">subsample_reads_C</text>
</g>
<!-- 15&#45;&gt;20 -->
<g id="edge30" class="edge">
<title>15&#45;&gt;20</title>
<path fill="none" stroke="grey" stroke-width="2" d="M578,-719.7C578,-711.98 578,-702.71 578,-694.11"/>
<polygon fill="grey" stroke="grey" stroke-width="2" points="581.5,-694.1 578,-684.1 574.5,-694.1 581.5,-694.1"/>
</g>
<!-- 16 -->
<g id="node17" class="node">
<title>16</title>
<path fill="none" stroke="#56d8d8" stroke-width="2" stroke-dasharray="5,2" d="M577.5,-828C577.5,-828 456.5,-828 456.5,-828 450.5,-828 444.5,-822 444.5,-816 444.5,-816 444.5,-804 444.5,-804 444.5,-798 450.5,-792 456.5,-792 456.5,-792 577.5,-792 577.5,-792 583.5,-792 589.5,-798 589.5,-804 589.5,-804 589.5,-816 589.5,-816 589.5,-822 583.5,-828 577.5,-828"/>
<text text-anchor="middle" x="517" y="-807.5" font-family="sans" font-size="10.00">hisat2_align_remove_host</text>
</g>
<!-- 16&#45;&gt;15 -->
<g id="edge26" class="edge">
<title>16&#45;&gt;15</title>
<path fill="none" stroke="grey" stroke-width="2" d="M532.08,-791.7C539.39,-783.3 548.31,-773.07 556.34,-763.86"/>
<polygon fill="grey" stroke="grey" stroke-width="2" points="559.16,-765.94 563.09,-756.1 553.89,-761.34 559.16,-765.94"/>
</g>
<!-- 17 -->
<g id="node18" class="node">
<title>17</title>
<path fill="none" stroke="#56d86b" stroke-width="2" stroke-dasharray="5,2" d="M345,-900C345,-900 259,-900 259,-900 253,-900 247,-894 247,-888 247,-888 247,-876 247,-876 247,-870 253,-864 259,-864 259,-864 345,-864 345,-864 351,-864 357,-870 357,-876 357,-876 357,-888 357,-888 357,-894 351,-900 345,-900"/>
<text text-anchor="middle" x="302" y="-885" font-family="sans" font-size="10.00">remove_duplicates</text>
<text text-anchor="middle" x="302" y="-874" font-family="sans" font-size="10.00">sample: C</text>
</g>
<!-- 17&#45;&gt;16 -->
<g id="edge27" class="edge">
<title>17&#45;&gt;16</title>
<path fill="none" stroke="grey" stroke-width="2" d="M354.32,-863.97C384.62,-854.1 422.95,-841.62 454.79,-831.25"/>
<polygon fill="grey" stroke="grey" stroke-width="2" points="456.02,-834.53 464.45,-828.11 453.85,-827.88 456.02,-834.53"/>
</g>
<!-- 27 -->
<g id="node28" class="node">
<title>27</title>
<path fill="none" stroke="#d8c356" stroke-width="2" stroke-dasharray="5,2" d="M176,-108C176,-108 12,-108 12,-108 6,-108 0,-102 0,-96 0,-96 0,-84 0,-84 0,-78 6,-72 12,-72 12,-72 176,-72 176,-72 182,-72 188,-78 188,-84 188,-84 188,-96 188,-96 188,-102 182,-108 176,-108"/>
<text text-anchor="middle" x="94" y="-87.5" font-family="sans" font-size="10.00">mapping_reads_on_final_assembly</text>
</g>
<!-- 17&#45;&gt;27 -->
<g id="edge37" class="edge">
<title>17&#45;&gt;27</title>
<path fill="none" stroke="grey" stroke-width="2" d="M274.98,-863.96C241.27,-840.37 188,-794.33 188,-739 188,-739 188,-739 188,-233 188,-185.17 150.46,-141.08 122.82,-115.11"/>
<polygon fill="grey" stroke="grey" stroke-width="2" points="125.08,-112.42 115.33,-108.27 120.36,-117.6 125.08,-112.42"/>
</g>
<!-- 18 -->
<g id="node19" class="node">
<title>18</title>
<path fill="none" stroke="#59d856" stroke-width="2" stroke-dasharray="5,2" d="M683.5,-540C683.5,-540 564.5,-540 564.5,-540 558.5,-540 552.5,-534 552.5,-528 552.5,-528 552.5,-516 552.5,-516 552.5,-510 558.5,-504 564.5,-504 564.5,-504 683.5,-504 683.5,-504 689.5,-504 695.5,-510 695.5,-516 695.5,-516 695.5,-528 695.5,-528 695.5,-534 689.5,-540 683.5,-540"/>
<text text-anchor="middle" x="624" y="-519.5" font-family="sans" font-size="10.00">hisat2_index_assembly_C</text>
</g>
<!-- 18&#45;&gt;14 -->
<g id="edge25" class="edge">
<title>18&#45;&gt;14</title>
<path fill="none" stroke="grey" stroke-width="2" d="M624,-503.7C624,-495.98 624,-486.71 624,-478.11"/>
<polygon fill="grey" stroke="grey" stroke-width="2" points="627.5,-478.1 624,-468.1 620.5,-478.1 627.5,-478.1"/>
</g>
<!-- 19 -->
<g id="node20" class="node">
<title>19</title>
<path fill="none" stroke="#566bd8" stroke-width="2" stroke-dasharray="5,2" d="M656,-612C656,-612 500,-612 500,-612 494,-612 488,-606 488,-600 488,-600 488,-588 488,-588 488,-582 494,-576 500,-576 500,-576 656,-576 656,-576 662,-576 668,-582 668,-588 668,-588 668,-600 668,-600 668,-606 662,-612 656,-612"/>
<text text-anchor="middle" x="578" y="-591.5" font-family="sans" font-size="10.00">megahit_assemble_subsample_C</text>
</g>
<!-- 19&#45;&gt;12 -->
<g id="edge22" class="edge">
<title>19&#45;&gt;12</title>
<path fill="none" stroke="grey" stroke-width="2" d="M563.06,-575.63C555.59,-565.84 547.24,-553 543,-540 519.73,-468.69 524.38,-378.59 528.72,-334.23"/>
<polygon fill="grey" stroke="grey" stroke-width="2" points="532.21,-334.53 529.78,-324.22 525.25,-333.8 532.21,-334.53"/>
</g>
<!-- 19&#45;&gt;18 -->
<g id="edge28" class="edge">
<title>19&#45;&gt;18</title>
<path fill="none" stroke="grey" stroke-width="2" d="M589.37,-575.7C594.72,-567.56 601.2,-557.69 607.11,-548.7"/>
<polygon fill="grey" stroke="grey" stroke-width="2" points="610.19,-550.38 612.76,-540.1 604.34,-546.54 610.19,-550.38"/>
</g>
<!-- 20&#45;&gt;19 -->
<g id="edge29" class="edge">
<title>20&#45;&gt;19</title>
<path fill="none" stroke="grey" stroke-width="2" d="M578,-647.7C578,-639.98 578,-630.71 578,-622.11"/>
<polygon fill="grey" stroke="grey" stroke-width="2" points="581.5,-622.1 578,-612.1 574.5,-622.1 581.5,-622.1"/>
</g>
<!-- 21 -->
<g id="node22" class="node">
<title>21</title>
<path fill="none" stroke="#80d856" stroke-width="2" stroke-dasharray="5,2" d="M689.5,-324C689.5,-324 612.5,-324 612.5,-324 606.5,-324 600.5,-318 600.5,-312 600.5,-312 600.5,-300 600.5,-300 600.5,-294 606.5,-288 612.5,-288 612.5,-288 689.5,-288 689.5,-288 695.5,-288 701.5,-294 701.5,-300 701.5,-300 701.5,-312 701.5,-312 701.5,-318 695.5,-324 689.5,-324"/>
<text text-anchor="middle" x="651" y="-303.5" font-family="sans" font-size="10.00">wga_wta_contigs</text>
</g>
<!-- 21&#45;&gt;3 -->
<g id="edge11" class="edge">
<title>21&#45;&gt;3</title>
<path fill="none" stroke="grey" stroke-width="2" d="M621.89,-287.88C606.33,-278.72 586.98,-267.34 570.22,-257.48"/>
<polygon fill="grey" stroke="grey" stroke-width="2" points="571.62,-254.24 561.22,-252.19 568.07,-260.28 571.62,-254.24"/>
</g>
<!-- 22&#45;&gt;0 -->
<g id="edge2" class="edge">
<title>22&#45;&gt;0</title>
<path fill="none" stroke="grey" stroke-width="2" d="M728.52,-71.97C686.35,-59.02 629.52,-41.57 592.82,-30.3"/>
<polygon fill="grey" stroke="grey" stroke-width="2" points="593.61,-26.89 583.03,-27.3 591.56,-33.58 593.61,-26.89"/>
</g>
<!-- 23 -->
<g id="node24" class="node">
<title>23</title>
<path fill="none" stroke="#5682d8" stroke-width="2" stroke-dasharray="5,2" d="M535.5,-108C535.5,-108 424.5,-108 424.5,-108 418.5,-108 412.5,-102 412.5,-96 412.5,-96 412.5,-84 412.5,-84 412.5,-78 418.5,-72 424.5,-72 424.5,-72 535.5,-72 535.5,-72 541.5,-72 547.5,-78 547.5,-84 547.5,-84 547.5,-96 547.5,-96 547.5,-102 541.5,-108 535.5,-108"/>
<text text-anchor="middle" x="480" y="-93" font-family="sans" font-size="10.00">mapping_wgawta_reads</text>
<text text-anchor="middle" x="480" y="-82" font-family="sans" font-size="10.00">number: 57</text>
</g>
<!-- 23&#45;&gt;0 -->
<g id="edge3" class="edge">
<title>23&#45;&gt;0</title>
<path fill="none" stroke="grey" stroke-width="2" d="M498.79,-71.7C508.17,-63.05 519.68,-52.45 529.91,-43.03"/>
<polygon fill="grey" stroke="grey" stroke-width="2" points="532.45,-45.45 537.43,-36.1 527.7,-40.3 532.45,-45.45"/>
</g>
<!-- 24&#45;&gt;23 -->
<g id="edge32" class="edge">
<title>24&#45;&gt;23</title>
<path fill="none" stroke="grey" stroke-width="2" d="M480,-143.7C480,-135.98 480,-126.71 480,-118.11"/>
<polygon fill="grey" stroke="grey" stroke-width="2" points="483.5,-118.1 480,-108.1 476.5,-118.1 483.5,-118.1"/>
</g>
<!-- 25 -->
<g id="node26" class="node">
<title>25</title>
<path fill="none" stroke="#5682d8" stroke-width="2" stroke-dasharray="5,2" d="M688.5,-108C688.5,-108 577.5,-108 577.5,-108 571.5,-108 565.5,-102 565.5,-96 565.5,-96 565.5,-84 565.5,-84 565.5,-78 571.5,-72 577.5,-72 577.5,-72 688.5,-72 688.5,-72 694.5,-72 700.5,-78 700.5,-84 700.5,-84 700.5,-96 700.5,-96 700.5,-102 694.5,-108 688.5,-108"/>
<text text-anchor="middle" x="633" y="-93" font-family="sans" font-size="10.00">mapping_wgawta_reads</text>
<text text-anchor="middle" x="633" y="-82" font-family="sans" font-size="10.00">number: 168</text>
</g>
<!-- 24&#45;&gt;25 -->
<g id="edge34" class="edge">
<title>24&#45;&gt;25</title>
<path fill="none" stroke="grey" stroke-width="2" d="M517.43,-143.88C538.25,-134.35 564.35,-122.41 586.48,-112.28"/>
<polygon fill="grey" stroke="grey" stroke-width="2" points="588.06,-115.41 595.69,-108.07 585.14,-109.05 588.06,-115.41"/>
</g>
<!-- 24&#45;&gt;26 -->
<g id="edge36" class="edge">
<title>24&#45;&gt;26</title>
<path fill="none" stroke="grey" stroke-width="2" d="M435.97,-143.88C411.03,-134.18 379.66,-121.98 353.34,-111.74"/>
<polygon fill="grey" stroke="grey" stroke-width="2" points="354.48,-108.43 343.89,-108.07 351.94,-114.95 354.48,-108.43"/>
</g>
<!-- 24&#45;&gt;27 -->
<g id="edge38" class="edge">
<title>24&#45;&gt;27</title>
<path fill="none" stroke="grey" stroke-width="2" d="M421.79,-150.44C362.66,-139.72 269.79,-122.88 197.98,-109.86"/>
<polygon fill="grey" stroke="grey" stroke-width="2" points="198.46,-106.39 188,-108.05 197.21,-113.27 198.46,-106.39"/>
</g>
<!-- 25&#45;&gt;0 -->
<g id="edge4" class="edge">
<title>25&#45;&gt;0</title>
<path fill="none" stroke="grey" stroke-width="2" d="M613.97,-71.7C604.46,-63.05 592.79,-52.45 582.43,-43.03"/>
<polygon fill="grey" stroke="grey" stroke-width="2" points="584.57,-40.24 574.81,-36.1 579.86,-45.42 584.57,-40.24"/>
</g>
<!-- 26&#45;&gt;0 -->
<g id="edge5" class="edge">
<title>26&#45;&gt;0</title>
<path fill="none" stroke="grey" stroke-width="2" d="M362.3,-71.97C411.28,-58.57 477.87,-40.36 518.84,-29.16"/>
<polygon fill="grey" stroke="grey" stroke-width="2" points="519.96,-32.48 528.68,-26.47 518.11,-25.73 519.96,-32.48"/>
</g>
<!-- 27&#45;&gt;0 -->
<g id="edge6" class="edge">
<title>27&#45;&gt;0</title>
<path fill="none" stroke="grey" stroke-width="2" d="M188.01,-73.42C191.04,-72.93 194.05,-72.46 197,-72 314.34,-53.66 453.53,-33.59 518.76,-24.28"/>
<polygon fill="grey" stroke="grey" stroke-width="2" points="519.55,-27.71 528.96,-22.83 518.56,-20.78 519.55,-27.71"/>
</g>
</g>
</svg>
